<?xml version="1.0" encoding="utf-8"?>
<!-- Generator: Adobe Illustrator 27.0.0, SVG Export Plug-In . SVG Version: 6.00 Build 0)  -->
<svg version="1.1" id="Layer_1" xmlns="http://www.w3.org/2000/svg" xmlns:xlink="http://www.w3.org/1999/xlink" x="0px" y="0px"
	 viewBox="0 0 512 512" style="enable-background:new 0 0 512 512;" xml:space="preserve">
<style type="text/css">
	.st0{fill:#041E42;}
	.st1{fill:#FFC72C;}
</style>
<g id="XMLID_1_">
	<path id="XMLID_6_" class="st0" d="M8.15,451.91c0.84-2.94,3.22-7.57,5.61-10.51c4.48-5.75,11.91-12.05,21.86-18.64
		c15.42-10.09,29.85-16.54,48.35-21.44c26.63-7.15,54.94-7.71,79.47-7.71h1.26c32.52,0,102.03,4.06,152.77,7.15
		c26.63,1.54,47.65,2.8,54.94,2.94h1.26c2.1,0,5.75,0.14,10.09,0.14c30.97,0,41.49-4.91,46.39-7.57
		c5.19-2.94,10.65-7.29,10.23-10.23c-0.56-4.34-11.49-4.06-15.56-4.63c-16.26-2.66-30.13-9.11-40.22-16.12
		c-11.49-8.13-18.78-22.42-18.78-22.42l-7.57,5.05c-27.89,18.5-50.88,27.05-72.32,27.05c-1.12,0-2.24,0-3.36-0.14
		c-12.47-0.56-22-5.61-24.67-10.09l-5.05-8.27l-7.29,6.31c-9.81,8.55-23.69,11.07-29.15,11.77c-2.38,0.28-4.91,0.42-7.29,0.42
		c-12.61,0-23.97-4.2-32.24-11.91c-1.26-1.12-5.61-6.31-6.45-7.57l-5.19-7.57l-7.01,6.03c-2.38,2.1-10.09,6.87-11.63,7.71
		c-15.84,8.55-33.36,13.03-50.74,13.03c-15.56,0-30.55-3.78-43.17-11.07c-29.99-17.24-34.62-50.88-33.08-75.96
		c1.96-34.34,14.58-68.68,37.28-102.03c19.62-28.73,46.53-56.2,78.07-79.47c22.99-16.96,58.02-38.26,94.88-44.15
		c6.45-0.98,13.45-1.96,20.04-1.96c7.57,0,13.31,1.26,17.38,3.92c11.07,7.01,11.35,20.88,10.51,28.45
		c-2.94,27.89-28.73,61.67-56.48,61.67c-5.19,0-9.67-1.96-12.33-5.33c-1.96-2.66-2.52-5.75-1.68-9.39
		c2.38-9.11,10.93-12.19,24.81-15.98c1.12-0.28,2.24-0.56,3.36-0.98c22.14-6.31,25.65-20.04,24.81-30.55
		c-0.56-7.15-5.61-14.72-17.8-14.72c-11.49,0-25.09,6.73-26.63,7.43c-30.27,15.14-50.6,40.08-70.36,66.57
		c-40.79,54.52-59.99,106.66-57.04,155.15c1.26,21.3,15.98,44.29,37.56,44.29c7.29,0,14.44-2.66,21.44-7.85
		c11.21-8.27,17.52-21.16,23.13-32.66c1.54-3.08,2.94-6.17,4.48-8.97c8.41-15.56,18.5-29.57,30.83-41.07
		c13.6-12.75,27.75-20.74,43.45-25.93c8.41-2.66,15.84-3.92,25.09-3.78c8.69,0.14,13.31,5.61,15.28,9.25
		c1.54-2.94,3.92-8.27,4.91-8.97c0.84-0.7,15.84-0.7,20.46-0.42c3.78,0.14,15.7,0.14,17.1,1.68c1.68,1.82-3.08,11.77-8.27,25.93
		c-2.38,6.59-6.03,14.44-9.81,24.25c-1.4,3.78-2.94,7.57-4.34,11.21c-11.91,30.27-19.76,50.32-6.59,57.18
		c2.52,1.26,5.47,1.96,8.55,1.96c9.39,0,18.92-6.31,25.79-10.93c0.84-0.56,1.54-0.98,2.24-1.54c8.13-5.33,12.61-8.55,16.96-12.75
		l2.66-2.66l-0.28-3.78c-2.38-33.64,2.52-70.36,12.61-95.73c14.16-35.32,34.9-67.13,59.85-92.22
		c12.47-12.61,44.01-35.32,61.39-35.74c14.72-0.28,10.51,25.51,9.25,31.53c-2.94,13.17-18.36,54.1-43.45,96.01
		c-8.55,14.16-27.05,39.66-39.24,56.48c-5.75,7.99-10.37,14.3-12.33,17.24l-1.12,1.68l-0.14,2.1c-1.68,20.04,8.69,40.36,19.62,51.72
		c10.37,10.65,21.3,14.44,31.82,18.22c3.64,1.26,7.43,2.52,11.21,4.2c3.22,1.4,7.29,3.64,8.13,6.87c0.84,3.08-1.26,7.99-5.61,13.31
		c-22,27.47-50.18,36.16-77.37,41.49c-15.7,3.08-34.62,4.48-58.16,4.48c-15.84,0-31.53-0.7-46.81-1.26
		c-5.75-0.28-11.49-0.42-16.96-0.7c-17.52-0.56-36.58-1.68-55.08-2.8c-16.26-0.98-33.08-1.96-48.63-2.52
		c-12.33-0.42-24.11-0.7-35.18-0.7c-30.27,0-56.34,1.82-77.37,5.47c-9.53,1.68-17.8,3.78-25.65,5.89c-2.38,0.56-4.63,1.26-7.01,1.82
		c-0.98,0.28-2.24,0.56-3.64,1.12C16.14,450.09,11.65,451.49,8.15,451.91L8.15,451.91z M273.46,247
		c-8.27,0.28-28.17,10.51-44.01,39.8c-3.64,6.87-15.14,35.32-8.97,49.47c1.82,4.34,5.33,7.29,9.53,8.27
		c1.12,0.28,2.24,0.42,3.36,0.42c14.02,0,23.83-19.48,33.36-41.35c0.7-1.68,1.4-3.22,1.96-4.48c2.52-5.33,12.89-29.29,14.86-38.4
		C285.09,255.13,285.51,246.72,273.46,247z M484.81,128.43c-3.22-1.82-12.05,4.63-12.05,4.63c-16.68,13.31-29.29,29.71-40.08,48.63
		c-28.59,50.04-25.93,89.42-25.93,89.42s15-16.96,18.5-22.56c4.77-7.57,22.85-32.94,33.08-50.88c10.93-19.2,23.41-45.83,26.49-54.94
		C484.67,142.73,489.72,131.09,484.81,128.43L484.81,128.43z"/>
	<path id="XMLID_10_" class="st1" d="M8.15,451.91l7.71,2.38c0.14-0.42,0.28-0.98,0.56-1.68c0.42-0.98,0.98-2.24,1.68-3.36
		s1.4-2.24,1.96-2.94l0,0c1.82-2.38,4.48-5.05,7.71-7.85c3.36-2.8,7.43-5.89,12.19-8.97c7.43-4.91,14.44-8.83,21.86-12.05
		c7.43-3.36,15.14-6.03,24.11-8.41l0,0c12.75-3.36,25.93-5.33,39.1-6.31c13.17-0.98,26.07-1.12,38.26-1.12l0,0h1.26l0,0
		c7.99,0,18.36,0.28,30.13,0.7c35.46,1.26,84.09,4.2,122.21,6.45c13.31,0.84,25.23,1.54,34.76,1.96c4.77,0.28,8.97,0.42,12.33,0.7
		c3.5,0.14,6.17,0.28,8.13,0.28l0,0h1.26l0,0c2.1,0,5.89,0.14,10.23,0.14c15.84,0,26.91-1.26,34.76-2.94
		c3.92-0.84,7.15-1.82,9.67-2.8s4.48-2.1,6.03-2.8c1.4-0.84,2.94-1.68,4.34-2.66c2.1-1.54,4.2-3.08,6.03-5.05
		c0.84-0.98,1.82-2.1,2.52-3.5c0.42-0.7,0.7-1.54,0.98-2.38c0.28-0.98,0.42-1.96,0.42-3.08c0-0.42,0-0.98-0.14-1.4l0,0
		c-0.14-1.12-0.42-2.1-0.98-3.08c-0.42-0.84-0.98-1.68-1.54-2.38c-1.12-1.26-2.24-2.1-3.36-2.66c-1.96-1.12-3.64-1.54-5.33-1.96
		c-2.52-0.56-4.77-0.7-6.87-0.98c-0.98-0.14-1.96-0.14-2.66-0.28c-0.7,0-1.26-0.14-1.54-0.14c-7.43-1.26-14.44-3.22-20.6-5.89
		c-6.17-2.52-11.77-5.75-16.26-8.83c-2.24-1.68-4.48-3.64-6.45-5.89c-2.94-3.22-5.47-6.73-7.15-9.39c-0.84-1.26-1.54-2.38-1.96-3.22
		c-0.28-0.42-0.42-0.7-0.42-0.84l-0.14-0.14l0,0l-2.38,1.26l2.38-1.26l0,0l-2.38,1.26l2.38-1.26c-0.98-2.1-2.94-3.5-5.05-4.2
		c-2.24-0.56-4.63-0.14-6.45,1.12l-7.57,5.05c-13.6,8.97-25.79,15.42-36.86,19.62c-11.21,4.2-21.3,6.17-30.97,6.17
		c-0.98,0-1.96,0-2.94,0l0,0c-5.19-0.28-9.81-1.4-13.03-2.94c-1.68-0.7-2.94-1.54-3.92-2.24c-0.42-0.28-0.7-0.7-0.98-0.84
		c-0.14-0.14-0.14-0.14-0.28-0.28l0,0l0,0l-0.28,0.14l0.28-0.14l0,0l-0.28,0.14l0.28-0.14l-5.05-8.27c-1.26-2.1-3.22-3.36-5.61-3.78
		c-2.38-0.42-4.77,0.28-6.45,1.82l-7.29,6.31c-1.96,1.68-4.06,3.08-6.45,4.34c-3.5,1.82-7.15,3.08-10.51,4.06
		c-3.36,0.84-6.17,1.4-7.99,1.54l0,0c-2.1,0.28-4.2,0.42-6.17,0.42c-5.33,0-10.51-0.84-15-2.52c-4.48-1.68-8.41-4.06-11.77-7.15l0,0
		l-1.26,1.26l1.26-1.26l0,0l-1.26,1.26l1.26-1.26l0,0c0,0-0.14-0.14-0.42-0.42c-0.28-0.42-0.84-0.98-1.4-1.54
		c-0.84-0.84-1.68-1.96-2.38-2.8c-0.42-0.42-0.7-0.84-0.84-1.12c-0.14-0.14-0.28-0.28-0.28-0.28v-0.14l0,0l-2.24,1.54l2.24-1.54l0,0
		l-2.24,1.54l2.24-1.54l0,0l-5.19-7.57c-1.26-1.82-3.36-3.08-5.61-3.36c-2.24-0.28-4.48,0.42-6.31,1.96l-7.01,6.03l0,0
		c-0.14,0.14-0.28,0.28-0.7,0.56c-0.56,0.42-1.4,1.12-2.38,1.68c-1.4,0.98-3.08,1.96-4.34,2.8c-0.7,0.42-1.26,0.84-1.82,1.12
		c-0.28,0.14-0.42,0.28-0.56,0.42c-0.14,0.14-0.28,0.14-0.28,0.14c-14.72,7.99-30.97,12.19-46.95,12.19
		c-14.3,0-27.89-3.5-39.24-10.09l0,0c-5.89-3.36-10.65-7.43-14.44-11.91c-5.75-6.73-9.39-14.72-11.77-23.13
		c-2.38-8.41-3.22-17.38-3.22-25.79c0-2.66,0.14-5.19,0.28-7.71l0,0c0.98-16.4,4.48-32.8,10.37-49.05
		c6.03-16.4,14.44-32.66,25.51-48.91c18.92-27.89,45.27-54.8,76.1-77.51c11.21-8.27,25.37-17.66,41.07-25.51
		c15.7-7.99,33.08-14.44,50.32-17.1c6.45-0.98,12.89-1.96,18.92-1.96c3.36,0,6.03,0.28,8.27,0.7c2.1,0.42,3.64,1.12,4.77,1.82l0,0
		c1.4,0.98,2.52,1.96,3.36,3.08c1.4,1.68,2.24,3.92,2.94,6.17c0.56,2.38,0.84,4.91,0.84,7.29c0,1.54-0.14,2.94-0.28,4.2l0,0
		c-0.56,5.89-2.52,12.47-5.47,18.92c-2.24,4.77-5.05,9.53-8.27,13.88c-4.77,6.45-10.65,12.05-16.68,15.84
		c-3.08,1.96-6.03,3.36-9.11,4.34c-3.08,0.98-6.03,1.54-8.97,1.54l0,0c-1.54,0-2.94-0.28-3.92-0.7c-0.98-0.42-1.68-0.98-2.1-1.4l0,0
		c-0.14-0.28-0.28-0.42-0.28-0.56c0-0.14-0.14-0.28-0.14-0.7c0-0.28,0-0.7,0.14-1.26l0,0c0.28-1.26,0.7-1.96,1.26-2.66
		c0.42-0.56,1.12-1.12,1.96-1.68c1.4-0.84,3.36-1.82,6.03-2.8c2.66-0.98,6.03-1.96,9.81-2.94l0,0c1.12-0.28,2.24-0.56,3.36-0.98l0,0
		c5.61-1.68,10.51-3.78,14.58-6.31c3.08-1.96,5.61-4.06,7.71-6.45c3.22-3.5,5.47-7.43,6.73-11.35c1.26-3.92,1.82-7.71,1.82-11.21
		c0-1.26,0-2.38-0.14-3.5c-0.28-2.52-0.84-5.19-1.96-7.85c-0.84-1.96-1.96-3.78-3.36-5.61c-2.1-2.66-5.05-4.91-8.55-6.31
		c-3.5-1.54-7.43-2.24-11.77-2.24c-3.64,0-7.15,0.56-10.51,1.26c-5.05,1.12-9.53,2.66-13.03,4.06c-3.5,1.4-6.03,2.66-6.73,2.94l0,0
		c-16.12,7.99-29.43,18.64-41.21,30.55s-22,25.09-31.96,38.4c-19.34,25.93-34.06,51.44-44.01,76.38c-9.95,25.09-15,49.75-15,73.58
		c0,3.5,0.14,7.01,0.28,10.37c0.42,6.17,1.68,12.33,3.92,18.22c1.68,4.34,3.78,8.69,6.31,12.61c3.78,5.89,8.69,11.07,14.72,14.86
		c2.94,1.96,6.17,3.5,9.67,4.48c3.5,1.12,7.15,1.68,10.93,1.68c4.63,0,9.25-0.84,13.6-2.38c4.34-1.54,8.69-3.92,12.61-7.01l0,0
		c6.59-4.91,11.63-11.07,15.56-17.24c4.06-6.17,7.15-12.61,9.95-18.22l0,0c1.54-3.08,2.94-6.03,4.34-8.69l0,0
		c8.13-15,17.66-28.17,29.15-38.96c6.45-6.03,12.89-10.79,19.48-14.72c6.73-3.92,13.6-7.01,20.88-9.39
		c3.64-1.12,6.87-1.96,10.37-2.52c3.36-0.56,6.87-0.84,10.65-0.84c0.42,0,0.98,0,1.4,0l0,0c1.4,0,2.38,0.28,3.22,0.56
		c1.26,0.42,2.38,1.12,3.22,1.96c0.84,0.84,1.54,1.82,2.1,2.66c1.4,2.52,4.2,4.06,7.15,4.06s5.61-1.68,7.01-4.34
		c0.42-0.84,0.84-1.82,1.4-2.66c0.7-1.4,1.4-2.8,1.96-3.78c0.28-0.56,0.56-0.84,0.56-0.98l0,0l0,0l-2.66-1.82l2.38,1.96
		c0.14-0.14,0.14-0.28,0.14-0.28l-2.66-1.82l2.38,1.96l-4.91-4.06l4.06,4.91c0.56-0.42,0.7-0.7,0.84-0.84l-4.91-4.06l4.06,4.91
		l-4.91-6.03l3.36,6.87c0.42-0.14,0.84-0.42,1.54-0.98l-4.91-6.03l3.36,6.87l-3.08-6.17l1.82,6.73c0.28,0,0.56-0.14,1.26-0.42
		l-3.08-6.17l1.82,6.73l-1.12-4.34l0.84,4.34c0,0,0.14,0,0.42-0.14l-1.12-4.34l0.84,4.34l-0.28-1.26l0.14,1.26l0,0l-0.28-1.26
		l0.14,1.26c0,0,0.56,0,1.12-0.14c0.98,0,2.24-0.14,3.78-0.14c1.54,0,3.22,0,4.77,0c1.68,0,3.36,0,4.91,0c1.54,0,2.8,0,3.5,0.14
		c1.12,0,2.52,0.14,4.2,0.14c2.52,0,5.33,0.14,7.43,0.42c1.12,0.14,1.96,0.28,2.24,0.28h0.14l0,0l0.84-3.22l-1.4,2.94
		c0.42,0.14,0.56,0.14,0.56,0.14l0.84-3.22l-1.4,2.94l2.52-5.47l-3.36,4.91c0.28,0.28,0.56,0.42,0.84,0.42l2.52-5.47l-3.36,4.91
		l3.92-5.75l-5.19,4.77c0.56,0.56,0.98,0.84,1.26,1.12l3.92-5.75l-5.19,4.77l0,0l5.19-4.77l-6.17,3.22
		c0.28,0.42,0.56,0.98,1.12,1.54l5.19-4.77l-6.17,3.22l5.75-2.94l-6.31,1.12c0.14,0.42,0.28,0.98,0.56,1.82l5.75-2.94l-6.31,1.12
		l4.91-0.98h-4.48c0,0.14,0,0.42,0.14,0.98l4.91-0.98h-5.05h2.1l-2.1-0.28c0,0,0,0.14,0,0.28h2.1l-2.1-0.28c0,0,0,0.28-0.14,0.7
		c-0.14,0.7-0.56,1.82-0.98,3.22c-0.7,2.1-1.82,4.77-2.94,7.85c-1.26,3.08-2.52,6.59-4.06,10.37l0,0
		c-2.24,6.17-5.89,14.16-9.81,24.11c-1.4,3.78-2.94,7.57-4.34,11.21l0,0c-3.78,9.53-7.15,18.22-9.67,26.07
		c-1.26,3.92-2.38,7.57-3.08,11.07c-0.7,3.5-1.26,6.87-1.26,10.23c0,1.96,0.14,3.92,0.56,5.75c0.56,2.8,1.68,5.75,3.5,8.13
		c1.82,2.52,4.34,4.48,7.01,5.89c3.78,1.96,7.99,2.94,12.19,2.94c3.22,0,6.31-0.56,9.25-1.4c4.34-1.26,8.27-3.08,11.77-5.05
		c3.5-1.96,6.59-4.06,9.25-5.75l0,0c0.84-0.56,1.54-0.98,2.24-1.4l0,0c4.06-2.66,7.43-4.91,10.37-7.01c2.94-2.1,5.47-4.34,7.85-6.73
		l0,0l2.66-2.66c1.68-1.68,2.52-3.92,2.38-6.31l-0.28-3.78c-0.42-5.47-0.56-10.93-0.56-16.54c0-13.88,1.12-27.75,3.36-40.79
		c2.24-13.03,5.33-24.95,9.39-34.9c13.74-34.34,33.92-65.31,58.02-89.56c2.8-2.8,7.01-6.45,11.77-10.23
		c7.15-5.61,15.84-11.63,24.11-15.98c4.06-2.24,8.13-4.06,11.63-5.33c3.5-1.26,6.59-1.82,8.55-1.96h0.14c0.42,0,0.56,0,0.56,0l0,0
		l0,0l0,0l0,0l0,0l0,0l0,0c0.14,0.14,0.28,0.28,0.42,0.7c0.28,0.7,0.7,1.82,0.98,3.36c0.28,1.54,0.42,3.22,0.42,5.05
		c0,2.52-0.28,5.19-0.56,7.43c-0.28,2.24-0.7,4.06-0.84,5.05c-0.28,1.4-0.84,3.22-1.54,5.61c-1.26,4.06-3.08,9.39-5.47,15.56
		c-7.15,18.64-19.34,45.41-35.6,72.46c-1.96,3.36-4.77,7.57-7.71,12.05c-4.63,6.87-10.09,14.72-15.56,22.28
		c-5.47,7.71-10.93,15.14-15.56,21.58c-2.94,3.92-5.47,7.57-7.57,10.51c-2.1,2.94-3.78,5.33-4.91,7.01l-1.12,1.68
		c-0.7,1.12-1.26,2.38-1.26,3.78l-0.14,2.1l0,0c-0.14,1.68-0.28,3.36-0.28,5.05c0,10.65,2.8,20.88,6.87,29.99
		c4.06,9.11,9.53,16.96,15.28,22.99c5.75,6.03,11.91,10.23,17.94,13.17c6.03,3.08,11.77,5.05,16.96,7.01l0,0
		c3.64,1.26,7.15,2.52,10.65,4.06c1.26,0.56,2.52,1.26,3.22,1.82c0.14,0.14,0.28,0.28,0.42,0.28l0.14,0.14l0,0l1.68-1.4l-2.1,0.56
		c0.14,0.56,0.42,0.84,0.42,0.84l1.68-1.4l-2.1,0.56l2.1-0.56h-2.24c0,0,0,0.28,0.14,0.56l2.1-0.56h-2.24h0.42h-0.42l0,0h0.42h-0.42
		c0,0,0,0.28-0.14,0.7c-0.14,0.56-0.56,1.54-1.26,2.66s-1.54,2.38-2.52,3.78c-5.05,6.31-10.51,11.63-16.12,15.98
		c-8.55,6.59-17.52,11.21-27.05,14.72c-9.53,3.5-19.34,5.89-29.43,7.85c-14.86,2.94-33.5,4.34-56.62,4.34
		c-15.56,0-31.25-0.56-46.39-1.26c-5.75-0.28-11.49-0.42-16.96-0.7l0,0c-17.38-0.56-36.44-1.68-54.94-2.8
		c-16.26-0.98-33.08-1.96-48.77-2.52c-12.33-0.56-24.39-0.7-35.6-0.7c-30.55,0-57.04,1.82-78.77,5.61l0,0
		c-9.95,1.68-18.36,3.92-26.35,6.03l0,0c-2.38,0.56-4.63,1.26-6.87,1.82l0,0c-1.4,0.28-2.66,0.7-4.06,1.12l0,0
		c-1.4,0.42-3.22,0.98-4.91,1.4s-3.5,0.84-4.48,0.98L8.15,451.91l7.99,0.56l0,0L8.15,451.91l7.71,2.38L8.15,451.91l-7.99-0.56l0,0
		c-0.14,2.38,0.7,4.63,2.52,6.31c1.68,1.68,4.06,2.38,6.45,2.1c2.38-0.28,4.63-0.84,6.73-1.4s4.06-1.12,5.61-1.54l0,0
		c1.4-0.42,2.52-0.84,3.22-0.98l0,0c2.38-0.56,4.63-1.26,7.01-1.82l0,0c7.99-2.1,15.98-4.06,25.09-5.75l0,0
		c20.46-3.5,46.11-5.33,75.96-5.33c10.93,0,22.71,0.28,34.9,0.7c15.42,0.56,32.24,1.54,48.49,2.52c18.5,1.12,37.7,2.24,55.36,2.8
		l0,0c5.47,0.14,11.07,0.42,16.96,0.7c15.28,0.56,31.11,1.26,47.09,1.26c23.83,0,43.31-1.54,59.71-4.63
		c13.88-2.66,28.45-6.31,42.61-13.03c7.01-3.36,14.02-7.43,20.6-12.61c6.59-5.19,13.03-11.35,18.92-18.64
		c2.1-2.66,3.92-5.33,5.19-8.13c0.7-1.4,1.26-2.8,1.54-4.2c0.42-1.4,0.7-2.94,0.7-4.63c0-1.12-0.14-2.24-0.42-3.36
		c-0.56-2.1-1.54-3.92-2.66-5.19c-0.84-0.98-1.68-1.82-2.52-2.66c-1.26-1.12-2.66-1.96-3.92-2.66s-2.52-1.26-3.64-1.82
		c-4.06-1.68-7.99-3.08-11.63-4.34l0,0c-5.33-1.82-10.23-3.64-15-6.03c-4.77-2.38-9.25-5.47-13.74-10.09
		c-4.34-4.48-8.83-11.07-12.19-18.36c-3.36-7.29-5.47-15.56-5.33-23.41c0-1.26,0-2.52,0.14-3.64l0,0l0,0l0,0
		c0.84-1.26,2.52-3.64,4.63-6.59c2.1-2.94,4.63-6.45,7.57-10.51c6.17-8.41,13.88-19.06,21.16-29.43c3.64-5.19,7.15-10.23,10.37-15
		s6.03-9.11,8.27-12.75c12.75-21.3,23.13-42.33,30.55-59.71c3.78-8.69,6.73-16.54,9.11-22.99c1.12-3.22,2.1-6.17,2.94-8.83
		c0.84-2.66,1.4-4.91,1.82-6.73c0.28-1.54,0.7-3.78,1.12-6.45c0.42-2.8,0.7-6.03,0.7-9.39c0-2.38-0.14-5.05-0.56-7.57
		c-0.28-1.96-0.84-3.92-1.54-5.75c-0.56-1.4-1.26-2.94-2.1-4.34c-0.7-1.12-1.54-2.1-2.52-3.08c-1.4-1.4-3.22-2.66-5.33-3.36
		c-2.1-0.84-4.2-1.12-6.45-1.12c-0.14,0-0.28,0-0.42,0c-3.08,0.14-6.03,0.56-8.97,1.4c-5.19,1.4-10.65,3.78-15.98,6.45
		c-8.13,4.2-16.26,9.53-23.55,14.86c-3.64,2.66-7.01,5.33-10.09,7.99c-3.08,2.52-5.75,5.05-8.13,7.29
		c-25.79,25.93-47.09,58.72-61.67,94.88c-4.48,11.21-7.99,24.25-10.23,38.12c-2.38,13.88-3.5,28.73-3.5,43.45
		c0,5.89,0.14,11.77,0.56,17.66l0,0l0,0l0,0c-1.82,1.82-3.64,3.36-6.17,5.19c-2.38,1.82-5.47,3.92-9.53,6.45l0,0
		c-0.7,0.56-1.54,0.98-2.38,1.54l0,0c-3.5,2.24-7.29,4.77-11.07,6.73c-1.82,0.98-3.78,1.68-5.47,2.1c-1.68,0.56-3.36,0.7-4.77,0.7
		c-1.96,0-3.5-0.42-4.91-1.12c-0.56-0.28-0.98-0.56-1.26-0.84c-0.42-0.42-0.56-0.7-0.84-1.4c-0.28-0.7-0.42-1.82-0.42-3.36
		c0-1.82,0.28-4.06,0.84-6.87c0.84-4.2,2.52-9.25,4.48-15c2.1-5.89,4.63-12.33,7.43-19.62l0,0c1.4-3.64,2.94-7.43,4.34-11.35
		c3.64-9.53,7.15-17.38,9.81-24.25l0,0c2.24-5.89,4.34-11.21,6.03-15.56c0.84-2.24,1.54-4.2,2.1-6.03c0.28-0.98,0.56-1.82,0.7-2.8
		s0.28-1.96,0.28-3.08c0-0.84,0-1.68-0.42-2.8c-0.14-0.56-0.42-1.12-0.7-1.82c-0.28-0.7-0.84-1.26-1.4-1.96l0,0
		c-0.56-0.56-0.98-0.98-1.4-1.26c-0.84-0.56-1.54-0.84-2.1-1.12c-1.12-0.42-1.96-0.56-2.8-0.84c-1.54-0.28-2.94-0.42-4.48-0.56
		c-2.24-0.14-4.77-0.28-6.87-0.28c-1.12,0-2.1,0-2.94-0.14c-0.84,0-1.54,0-1.96,0c-0.98,0-2.38-0.14-3.92-0.14
		c-1.54,0-3.36,0-5.19,0c-2.8,0-5.61,0-7.99,0.14c-1.12,0-2.24,0.14-3.22,0.28c-0.56,0-0.98,0.14-1.68,0.28
		c-0.28,0-0.7,0.14-1.26,0.28c-0.28,0.14-0.56,0.28-0.98,0.42c-0.42,0.14-0.98,0.42-1.68,0.98c-0.56,0.56-0.98,0.84-1.26,1.26
		c-0.56,0.56-0.84,1.12-1.12,1.54c-0.42,0.7-0.84,1.54-1.26,2.24c-0.56,1.12-1.26,2.38-1.82,3.5c-0.56,1.12-1.12,2.24-1.54,3.08
		l7.15,3.64l7.01-3.92c-1.4-2.52-3.78-5.61-7.43-8.41c-1.82-1.4-4.06-2.52-6.45-3.36c-2.52-0.84-5.33-1.4-8.27-1.4l0,0
		c-0.56,0-1.12,0-1.68,0c-4.63,0-8.97,0.28-13.31,0.98c-4.34,0.7-8.41,1.68-12.75,3.08c-8.27,2.66-16.4,6.31-24.11,10.79
		c-7.71,4.63-15.14,10.09-22.28,16.82c-13.03,12.19-23.55,26.91-32.38,43.03l0,0c-1.68,2.94-3.08,6.03-4.63,9.25l0,0
		c-2.8,5.75-5.61,11.49-8.97,16.54c-3.36,5.19-7.15,9.67-11.77,13.03l0,0c-2.94,2.24-5.75,3.78-8.55,4.77
		c-2.8,0.98-5.47,1.54-8.13,1.54c-3.92,0-7.43-0.98-10.79-2.94c-2.52-1.4-4.91-3.36-7.01-5.61c-3.22-3.5-6.03-7.99-8.13-12.89
		c-1.96-4.91-3.22-10.23-3.5-15.28c-0.14-3.08-0.28-6.31-0.28-9.39c0-21.72,4.63-44.29,13.88-67.69
		c9.25-23.41,23.27-47.79,41.91-72.74c9.81-13.17,19.62-25.65,30.55-36.72c10.93-10.93,22.85-20.46,37-27.47l0,0
		c0.56-0.28,4.06-1.96,8.69-3.64c2.24-0.84,4.77-1.54,7.29-2.1c2.52-0.56,5.05-0.84,7.01-0.84c2.24,0,3.78,0.28,5.05,0.84
		c0.84,0.28,1.54,0.7,2.1,1.12c0.84,0.7,1.4,1.4,1.82,2.38c0.42,0.98,0.7,1.96,0.84,3.08c0,0.7,0.14,1.4,0.14,2.24
		c0,1.82-0.28,3.78-0.7,5.47c-0.42,1.26-0.98,2.66-1.68,3.92c-1.12,1.82-2.8,3.78-5.47,5.61s-6.31,3.64-11.21,5.05l0,0
		c-0.98,0.28-2.1,0.56-3.22,0.84l0,0c-3.5,0.98-6.87,1.96-9.95,2.94c-2.24,0.84-4.48,1.68-6.59,2.66c-1.54,0.84-3.08,1.68-4.48,2.66
		c-2.24,1.54-4.2,3.36-5.89,5.61c-1.68,2.24-2.8,4.91-3.5,7.71l0,0c-0.42,1.68-0.7,3.5-0.7,5.19c0,1.96,0.28,3.92,0.98,5.89
		c0.7,1.82,1.68,3.64,2.8,5.19l0,0c2.24,2.8,5.19,4.91,8.27,6.31c3.22,1.4,6.73,2.1,10.23,2.1l0,0c4.34,0,8.41-0.7,12.47-1.82
		c7.01-2.1,13.6-5.61,19.48-10.23c8.83-6.87,16.26-15.84,21.86-25.79c5.61-9.81,9.39-20.6,10.51-31.11l0,0
		c0.14-1.68,0.28-3.64,0.28-5.89c0-4.48-0.56-9.81-2.66-15.28c-0.98-2.66-2.52-5.47-4.48-7.99c-1.96-2.52-4.48-4.91-7.43-6.87l0,0
		c-2.94-1.96-6.31-3.22-9.95-3.92c-3.64-0.84-7.43-1.12-11.77-1.12c-7.43,0-14.72,1.12-21.3,2.1
		c-19.62,3.08-38.26,10.23-55.08,18.64S142,91.29,130.22,99.98c-32.1,23.69-59.71,51.86-79.89,81.43
		c-11.63,17.1-20.74,34.62-27.33,52.42c-6.45,17.66-10.23,35.74-11.35,53.68l0,0c-0.14,2.8-0.28,5.61-0.28,8.55
		c0,6.31,0.42,13.03,1.54,19.76c1.68,10.23,4.91,20.6,10.51,30.27c2.8,4.77,6.31,9.39,10.51,13.6c4.2,4.2,9.11,7.99,14.72,11.21l0,0
		c14.02,7.99,30.27,12.19,47.23,12.19c18.78,0,37.56-4.91,54.52-14.02c0.42-0.14,0.7-0.42,1.12-0.7c1.4-0.84,3.64-2.24,5.89-3.64
		c1.12-0.7,2.24-1.54,3.22-2.24c0.56-0.42,0.98-0.7,1.54-1.12c0.42-0.42,0.98-0.7,1.4-1.12l0,0l0.14-0.14l0.14,0.14l0,0
		c0.14,0.14,0.28,0.42,0.42,0.56c0.28,0.28,0.42,0.56,0.7,0.84c0.84,1.12,2.1,2.52,3.22,3.92c0.56,0.7,1.12,1.26,1.68,1.96
		c0.28,0.28,0.56,0.56,0.7,0.84c0.28,0.28,0.42,0.56,0.84,0.84l0,0c4.91,4.63,10.79,8.13,17.1,10.51c6.45,2.38,13.31,3.5,20.46,3.5
		c2.8,0,5.61-0.14,8.27-0.56l0,0c3.08-0.42,8.41-1.26,14.44-3.36c3.08-0.98,6.17-2.24,9.39-3.92s6.45-3.78,9.39-6.31l0.14-0.14
		l0.14,0.14c0.7,1.12,1.54,2.24,2.38,3.08c1.54,1.68,3.36,2.94,5.33,4.2c2.94,1.82,6.45,3.36,10.37,4.48
		c3.92,1.12,8.27,1.96,13.03,2.1l0,0c1.26,0,2.52,0.14,3.64,0.14c11.91,0,23.97-2.38,36.72-7.15c12.61-4.77,25.93-11.77,40.22-21.3
		l7.57-5.05l-4.48-6.73l-7.15,3.64c0.14,0.28,2.1,4.2,5.61,9.25c1.82,2.52,3.92,5.33,6.59,8.13c2.66,2.8,5.61,5.61,9.11,7.99
		c5.47,3.92,12.05,7.57,19.34,10.65c7.29,3.08,15.42,5.47,24.25,6.87c0.84,0.14,1.54,0.28,2.38,0.28c1.4,0.14,2.8,0.28,4.06,0.28
		c0.98,0.14,1.96,0.14,2.8,0.28c0.56,0.14,1.12,0.28,1.4,0.28c0.28,0.14,0.42,0.14,0.42,0.14l0,0l1.26-2.8l-2.24,2.1
		c0.56,0.56,0.84,0.7,0.84,0.7l1.26-2.8l-2.24,2.1l3.78-3.5l-4.63,2.24c0.28,0.56,0.56,0.84,0.84,1.26l3.78-3.5l-4.63,2.24
		l4.91-2.38l-5.33,0.7c0.14,0.56,0.28,1.12,0.56,1.68l4.91-2.38l-5.33,0.7l0,0l5.61-0.84h-5.61c0,0.28,0,0.56,0,0.84l5.61-0.84
		h-5.61h4.77l-4.48-1.68c-0.14,0.28-0.28,0.84-0.28,1.68h4.77l-4.48-1.68l1.96,0.7l-1.82-1.12c0,0-0.14,0.14-0.14,0.42l1.96,0.7
		l-1.82-1.12l0,0c-0.14,0.14-0.42,0.42-0.7,0.84c-0.56,0.56-1.54,1.26-2.52,2.1c-0.98,0.7-2.24,1.4-3.36,2.1
		c-0.98,0.56-2.1,1.12-3.78,1.82c-2.52,0.98-6.59,2.24-12.75,3.08c-6.17,0.98-14.58,1.54-25.79,1.54c-4.2,0-7.71-0.14-9.81-0.14l0,0
		h-1.26l0,0c-1.68,0-4.34-0.14-7.71-0.28c-10.23-0.42-27.05-1.54-46.95-2.66c-25.37-1.54-55.5-3.22-83.25-4.63
		c-13.88-0.7-27.33-1.26-39.24-1.68c-11.91-0.42-22.42-0.7-30.69-0.7l0,0h-1.26l0,0c-12.33,0-25.65,0.14-39.52,1.26
		s-28.03,3.08-42.05,6.73l0,0c-9.53,2.52-18.22,5.47-26.49,9.25c-8.27,3.64-16.12,7.99-24.25,13.31c-5.19,3.5-9.81,6.87-13.74,10.23
		s-7.29,6.73-9.95,10.23l0,0c-1.54,1.96-2.94,4.2-4.06,6.45c-0.56,1.12-1.12,2.24-1.54,3.36c-0.42,1.12-0.84,2.24-1.26,3.36
		c-0.14,0.56-0.28,1.26-0.28,1.82L8.15,451.91z M273.46,247l-0.28-7.99c-1.82,0-3.64,0.42-5.47,0.84
		c-3.22,0.84-6.59,2.24-10.37,4.34c-5.47,3.08-11.49,7.71-17.52,14.02c-6.03,6.31-12.05,14.44-17.52,24.67
		c-0.42,0.84-0.98,1.96-1.54,3.08c-1.96,4.06-4.34,10.37-6.45,17.38c-0.98,3.5-1.96,7.29-2.66,11.07c-0.7,3.78-1.12,7.71-1.12,11.49
		c0,2.24,0.14,4.63,0.56,6.87c0.42,2.24,0.98,4.48,1.96,6.73c1.4,3.08,3.36,6.03,6.03,8.27c2.52,2.24,5.75,3.78,8.97,4.63l0,0
		c1.68,0.42,3.5,0.7,5.33,0.7l0,0c2.66,0,5.33-0.42,7.71-1.4c2.1-0.7,4.06-1.82,5.89-3.08c3.22-2.1,5.89-4.91,8.41-7.85
		c3.78-4.48,7.01-9.81,9.95-15.56c3.08-5.75,5.89-11.91,8.69-18.36l0,0c0.7-1.68,1.4-3.22,1.96-4.34l0,0
		c0.7-1.4,1.82-3.92,3.08-7.15c2.1-4.77,4.63-10.93,7.01-16.96c1.12-2.94,2.24-5.89,3.08-8.55c0.98-2.66,1.68-5.05,2.1-7.29l0,0
		c0.42-1.82,0.84-4.06,0.84-6.73c0-1.68-0.14-3.64-0.84-5.61c-0.42-1.54-1.12-3.08-2.24-4.48c-0.84-1.12-1.82-2.1-2.8-3.08
		c-1.68-1.26-3.64-2.24-5.75-2.94c-2.1-0.56-4.34-0.84-6.59-0.84c-0.28,0-0.7,0-0.98,0l0,0L273.46,247l0.28,7.99
		c0.14,0,0.28,0,0.56,0c1.4,0,2.1,0.14,2.38,0.28c0.14,0,0.14,0,0.14,0l0.42-0.84l-0.7,0.56c0.14,0.14,0.28,0.14,0.28,0.14
		l0.42-0.84l-0.7,0.56l0.84-0.84l-0.98,0.56l0.14,0.28l0.84-0.84l-0.98,0.56l0.56-0.28l-0.56,0.28l0,0l0.56-0.28l-0.56,0.28
		l0.14-0.14l-0.14,0.14l0,0l0.14-0.14l-0.14,0.14l0,0c0,0.14,0.14,0.42,0.14,0.98c0,0.84-0.14,1.96-0.42,3.08l0,0
		c-0.14,0.84-0.56,1.96-0.98,3.36c-0.84,2.38-1.82,5.47-3.08,8.83c-1.82,4.91-4.06,10.23-6.03,14.72c-0.98,2.24-1.82,4.34-2.52,6.03
		s-1.4,3.08-1.68,3.92l0,0c-0.56,1.4-1.26,2.94-2.1,4.63l0,0c-2.38,5.33-4.77,10.51-7.15,15.28c-1.82,3.5-3.5,6.73-5.33,9.53
		c-1.4,2.1-2.66,3.92-3.92,5.47c-1.96,2.38-3.78,4.06-5.47,4.91c-0.84,0.42-1.54,0.84-2.24,0.98s-1.26,0.28-1.96,0.28l0,0
		c-0.56,0-0.98,0-1.4-0.14l0,0c-0.98-0.28-1.68-0.56-2.38-1.26c-0.7-0.56-1.26-1.4-1.82-2.52c-0.28-0.7-0.56-1.68-0.84-2.94
		c-0.14-1.26-0.28-2.66-0.28-4.2c0-2.94,0.42-6.45,1.12-9.95c1.12-5.33,2.8-10.93,4.48-15.56c0.84-2.24,1.68-4.34,2.38-6.03
		c0.7-1.68,1.4-3.08,1.82-3.78c7.43-13.74,15.7-22.71,22.71-28.31c3.5-2.8,6.73-4.63,9.25-5.75c1.26-0.56,2.38-0.98,3.36-1.26
		c0.84-0.28,1.54-0.28,1.82-0.28l0,0L273.46,247z M484.81,128.43l3.92-7.01c-0.98-0.56-1.96-0.84-2.8-1.12
		c-0.84-0.14-1.68-0.28-2.52-0.28c-1.4,0-2.52,0.14-3.5,0.42c-1.82,0.42-3.22,0.98-4.63,1.68c-1.96,0.98-3.78,1.96-5.05,2.8
		s-2.1,1.4-2.24,1.54l-0.28,0.14c-8.83,7.01-16.68,14.86-23.55,23.41c-6.87,8.55-13.03,17.8-18.64,27.61
		c-12.47,21.86-19.34,41.91-22.99,57.74c-3.64,15.84-4.2,27.61-4.2,32.94c0,1.96,0.14,3.08,0.14,3.36c0.28,3.22,2.38,6.03,5.47,7.01
		c3.08,0.98,6.45,0.14,8.55-2.24c0,0,3.78-4.34,7.99-9.25c2.1-2.52,4.34-5.19,6.31-7.71c0.98-1.26,1.96-2.38,2.66-3.5
		c0.84-1.12,1.54-2.1,2.1-3.08c0.56-0.84,1.26-2.1,2.24-3.5c3.36-5.05,8.83-12.89,14.58-21.58c5.75-8.69,11.77-18.08,16.4-26.21
		c5.61-9.81,11.49-21.44,16.4-31.82c2.52-5.19,4.77-10.09,6.59-14.3c0.98-2.1,1.68-4.06,2.38-5.75c0.7-1.68,1.26-3.22,1.68-4.63
		l-7.57-2.52l7.29,3.22c0.14-0.14,0.7-1.68,1.4-3.92c0.28-1.12,0.7-2.38,0.98-3.92c0.28-1.4,0.56-3.08,0.56-4.77
		c0-0.84,0-1.82-0.14-2.8c-0.28-1.4-0.7-3.08-1.68-4.77c-0.42-0.84-1.12-1.68-1.82-2.38c-0.7-0.7-1.68-1.4-2.52-1.96
		c-2.52-1.4-5.47-1.26-7.99,0.14c-2.38,1.4-3.92,4.06-3.92,6.87l0,0h8.41l3.92-7.01L484.81,128.43h7.99l0,0H484.81l-3.92,7.01
		l2.1-3.78l-3.36,2.8c0.28,0.42,0.84,0.84,1.26,0.98l2.1-3.78l-3.36,2.8l3.08-2.52l-3.5,1.68c0.14,0.28,0.28,0.56,0.56,0.84
		l3.08-2.52l-3.5,1.68l2.1-0.98l-2.24,0.42c0,0,0,0.28,0.28,0.56l2.1-0.98l-2.24,0.42h0.28h-0.28l0,0h0.28h-0.28c0,0,0,0.14,0,0.28
		c0,0.42,0,0.98-0.14,1.68c-0.14,1.12-0.56,2.38-0.84,3.22c-0.14,0.42-0.28,0.84-0.42,0.98c0,0.14-0.14,0.14-0.14,0.28l0,0
		l2.66,1.12l-2.66-1.12l0,0l2.66,1.12l-2.66-1.12l-0.28,0.7c-0.28,0.98-0.84,2.24-1.4,3.78c-1.12,2.66-2.66,6.17-4.34,10.09
		c-5.33,11.77-13.17,27.47-20.18,39.66c-2.38,4.34-5.47,9.11-8.55,14.16c-4.77,7.43-9.81,15-14.3,21.58
		c-2.24,3.22-4.2,6.17-5.89,8.69c-1.68,2.52-3.08,4.63-4.06,6.17c-0.28,0.42-0.84,1.12-1.4,2.1c-1.12,1.54-2.8,3.64-4.63,5.75
		c-2.66,3.22-5.61,6.73-7.85,9.25c-1.12,1.26-2.1,2.38-2.8,3.22c-0.28,0.42-0.56,0.7-0.84,0.84c-0.14,0.14-0.14,0.14-0.14,0.28v0.14
		l6.03,5.33l7.99-0.56l-5.19,0.28l5.19-0.28l0,0l-5.19,0.28l5.19-0.28l0,0c0-0.14,0-0.84,0-2.24c0-4.34,0.42-14.86,3.78-29.29
		c3.36-14.44,9.53-32.94,21.3-53.4c5.19-9.25,10.93-17.66,17.1-25.37c6.31-7.71,13.17-14.72,21.02-21.02l-5.05-6.31l4.77,6.45
		l-1.54-2.1l1.54,2.1l0,0l-1.54-2.1l1.54,2.1c0,0,1.54-1.12,3.22-2.1c0.84-0.42,1.68-0.84,2.38-1.12c0.28-0.14,0.56-0.14,0.56-0.14
		l0,0l-0.42-1.96v2.1c0.28,0,0.42,0,0.42,0l-0.42-1.96v2.1v-4.48l-0.98,4.34c0.42,0.14,0.7,0.14,0.98,0.14v-4.48l-0.98,4.34
		l1.12-5.47l-2.66,4.91c0.56,0.28,1.12,0.42,1.54,0.56l1.12-5.47l-2.66,4.91c2.52,1.4,5.47,1.26,7.99-0.14
		c2.38-1.4,3.92-4.06,3.92-6.87h-8.41V128.43z"/>
	<path id="XMLID_14_" class="st0" d="M8.15,451.91c0.84-2.94,3.22-7.57,5.61-10.51c4.48-5.75,11.91-12.05,21.86-18.64
		c15.42-10.09,29.85-16.54,48.35-21.44c26.63-7.15,54.94-7.71,79.47-7.71h1.26c32.52,0,102.03,4.06,152.77,7.15
		c26.63,1.54,47.65,2.8,54.94,2.94h1.26c2.1,0,5.75,0.14,10.09,0.14c30.97,0,41.49-4.91,46.39-7.57
		c5.19-2.94,10.65-7.29,10.23-10.23c-0.56-4.34-11.49-4.06-15.56-4.63c-16.26-2.66-30.13-9.11-40.22-16.12
		c-11.49-8.13-18.78-22.42-18.78-22.42l-7.57,5.05c-27.89,18.5-50.88,27.05-72.32,27.05c-1.12,0-2.24,0-3.36-0.14
		c-12.47-0.56-22-5.61-24.67-10.09l-5.05-8.27l-7.29,6.31c-9.81,8.55-23.69,11.07-29.15,11.77c-2.38,0.28-4.91,0.42-7.29,0.42
		c-12.61,0-23.97-4.2-32.24-11.91c-1.26-1.12-5.61-6.31-6.45-7.57l-5.19-7.57l-7.01,6.03c-2.38,2.1-10.09,6.87-11.63,7.71
		c-15.84,8.55-33.36,13.03-50.74,13.03c-15.56,0-30.55-3.78-43.17-11.07c-29.99-17.24-34.62-50.88-33.08-75.96
		c1.96-34.34,14.58-68.68,37.28-102.03c19.62-28.73,46.53-56.2,78.07-79.47c22.99-16.96,58.02-38.26,94.88-44.15
		c6.45-0.98,13.45-1.96,20.04-1.96c7.57,0,13.31,1.26,17.38,3.92c11.07,7.01,11.35,20.88,10.51,28.45
		c-2.94,27.89-28.73,61.67-56.48,61.67c-5.19,0-9.67-1.96-12.33-5.33c-1.96-2.66-2.52-5.75-1.68-9.39
		c2.38-9.11,10.93-12.19,24.81-15.98c1.12-0.28,2.24-0.56,3.36-0.98c22.14-6.31,25.65-20.04,24.81-30.55
		c-0.56-7.15-5.61-14.72-17.8-14.72c-11.49,0-25.09,6.73-26.63,7.43c-30.27,15.14-50.6,40.08-70.36,66.57
		c-40.79,54.52-59.99,106.66-57.04,155.15c1.26,21.3,15.98,44.29,37.56,44.29c7.29,0,14.44-2.66,21.44-7.85
		c11.21-8.27,17.52-21.16,23.13-32.66c1.54-3.08,2.94-6.17,4.48-8.97c8.41-15.56,18.5-29.57,30.83-41.07
		c13.6-12.75,27.75-20.74,43.45-25.93c8.41-2.66,15.84-3.92,25.09-3.78c8.69,0.14,13.31,5.61,15.28,9.25
		c1.54-2.94,3.92-8.27,4.91-8.97c0.84-0.7,15.84-0.7,20.46-0.42c3.78,0.14,15.7,0.14,17.1,1.68c1.68,1.82-3.08,11.77-8.27,25.93
		c-2.38,6.59-6.03,14.44-9.81,24.25c-1.4,3.78-2.94,7.57-4.34,11.21c-11.91,30.27-19.76,50.32-6.59,57.18
		c2.52,1.26,5.47,1.96,8.55,1.96c9.39,0,18.92-6.31,25.79-10.93c0.84-0.56,1.54-0.98,2.24-1.54c8.13-5.33,12.61-8.55,16.96-12.75
		l2.66-2.66l-0.28-3.78c-2.38-33.64,2.52-70.36,12.61-95.73c14.16-35.32,34.9-67.13,59.85-92.22
		c12.47-12.61,44.01-35.32,61.39-35.74c14.72-0.28,10.51,25.51,9.25,31.53c-2.94,13.17-18.36,54.1-43.45,96.01
		c-8.55,14.16-27.05,39.66-39.24,56.48c-5.75,7.99-10.37,14.3-12.33,17.24l-1.12,1.68l-0.14,2.1c-1.68,20.04,8.69,40.36,19.62,51.72
		c10.37,10.65,21.3,14.44,31.82,18.22c3.64,1.26,7.43,2.52,11.21,4.2c3.22,1.4,7.29,3.64,8.13,6.87c0.84,3.08-1.26,7.99-5.61,13.31
		c-22,27.47-50.18,36.16-77.37,41.49c-15.7,3.08-34.62,4.48-58.16,4.48c-15.84,0-31.53-0.7-46.81-1.26
		c-5.75-0.28-11.49-0.42-16.96-0.7c-17.52-0.56-36.58-1.68-55.08-2.8c-16.26-0.98-33.08-1.96-48.63-2.52
		c-12.33-0.42-24.11-0.7-35.18-0.7c-30.27,0-56.34,1.82-77.37,5.47c-9.53,1.68-17.8,3.78-25.65,5.89c-2.38,0.56-4.63,1.26-7.01,1.82
		c-0.98,0.28-2.24,0.56-3.64,1.12C16.14,450.09,11.65,451.49,8.15,451.91L8.15,451.91z M273.46,247
		c-8.27,0.28-28.17,10.51-44.01,39.8c-3.64,6.87-15.14,35.32-8.97,49.47c1.82,4.34,5.33,7.29,9.53,8.27
		c1.12,0.28,2.24,0.42,3.36,0.42c14.02,0,23.83-19.48,33.36-41.35c0.7-1.68,1.4-3.22,1.96-4.48c2.52-5.33,12.89-29.29,14.86-38.4
		C285.09,255.13,285.51,246.72,273.46,247z M484.81,128.43c-3.22-1.82-12.05,4.63-12.05,4.63c-16.68,13.31-29.29,29.71-40.08,48.63
		c-28.59,50.04-25.93,89.42-25.93,89.42s15-16.96,18.5-22.56c4.77-7.57,22.85-32.94,33.08-50.88c10.93-19.2,23.41-45.83,26.49-54.94
		C484.67,142.73,489.72,131.09,484.81,128.43L484.81,128.43z"/>
</g>
</svg>
